<?xml version="1.0" encoding="UTF-8" standalone="no"?>
<svg
   version="1.1"
   width="600"
   height="600"
   viewBox="0 0 600 600"
   xml:space="preserve"
   id="svg6"
   sodipodi:docname="logo.svg"
   inkscape:version="1.3 (0e150ed6c4, 2023-07-21)"
   xmlns:inkscape="http://www.inkscape.org/namespaces/inkscape"
   xmlns:sodipodi="http://sodipodi.sourceforge.net/DTD/sodipodi-0.dtd"
   xmlns="http://www.w3.org/2000/svg"
   xmlns:svg="http://www.w3.org/2000/svg"><sodipodi:namedview
   id="namedview6"
   pagecolor="#ffffff"
   bordercolor="#000000"
   borderopacity="0.25"
   inkscape:showpageshadow="2"
   inkscape:pageopacity="0.0"
   inkscape:pagecheckerboard="0"
   inkscape:deskcolor="#d1d1d1"
   inkscape:zoom="0.63671875"
   inkscape:cx="295.2638"
   inkscape:cy="284.26994"
   inkscape:window-width="1440"
   inkscape:window-height="890"
   inkscape:window-x="-6"
   inkscape:window-y="-6"
   inkscape:window-maximized="1"
   inkscape:current-layer="svg6" />&#10;<desc
   id="desc1">Created with Fabric.js 4.4.0</desc>&#10;<defs
   id="defs1">&#10;</defs>&#10;<g
   transform="translate(296.8096,284.32556)"
   id="background-logo">&#10;<rect
   style="opacity:1;fill:#ffffff;fill-opacity:0;fill-rule:nonzero;stroke:none;stroke-width:0;stroke-linecap:butt;stroke-linejoin:miter;stroke-miterlimit:4;stroke-dasharray:none;stroke-dashoffset:0"
   paint-order="stroke"
   x="-640"
   y="-512"
   rx="0"
   ry="0"
   width="1280"
   height="1024"
   id="rect1" />&#10;</g>&#10;&#10;<g
   id="g7"
   transform="translate(3.55636,54.596999)"><g
     transform="matrix(1.9211538,0,0,1.9211538,296.8096,184.76195)"
     id="logo-logo">&#10;<g
   paint-order="stroke"
   id="g5">&#10;		<g
   transform="matrix(0.52799376,0,0,0.52799376,7.6971642e-4,-29.765294)"
   id="g1">&#10;<path
   style="opacity:1;fill:#ecb958;fill-rule:nonzero;stroke:none;stroke-width:1;stroke-linecap:butt;stroke-linejoin:miter;stroke-miterlimit:4;stroke-dasharray:none;stroke-dashoffset:0"
   paint-order="stroke"
   transform="translate(-250.99954,-195.7375)"
   d="m 358.32,115.65 c -57.84,-60.9 -156.83,-60.92 -214.68,-0.02 -19.36,20.33 -32.95,46.42 -37.75,74.07 -3.83,21.65 -2.65,44.23 4.07,65.04 -3.19,-26.78 0.13,-53.2 10.19,-77.6 6.75,-16.49 16.39,-31.18 28.15,-43.63 -12.24,19.02 -19.34,41.66 -19.34,65.96 0,67.4 54.64,122.04 122.04,122.04 67.4,0 122.04,-54.64 122.04,-122.04 0,-24.41 -7.17,-47.15 -19.52,-66.23 29.42,31.31 44.28,75.59 38.51,121.5 15.53,-48.28 1.29,-102.73 -33.71,-139.09 z"
   stroke-linecap="round"
   id="path1" />&#10;</g>&#10;		<g
   transform="matrix(0.52799376,0,0,0.52799376,-0.00954609,-13.794803)"
   id="g2">&#10;<path
   style="opacity:1;fill:#445249;fill-rule:nonzero;stroke:none;stroke-width:1;stroke-linecap:butt;stroke-linejoin:miter;stroke-miterlimit:4;stroke-dasharray:none;stroke-dashoffset:0"
   paint-order="stroke"
   transform="translate(-250.98,-225.985)"
   d="m 413.86,315.05 c -17.67,-0.64 -23.28,-11.91 -23.28,-11.91 6.2,2.21 14.18,0.74 14.18,0.74 -20.97,-4.43 -31.7,-17.33 -31.7,-17.33 5.76,1.97 16.59,-0.79 16.59,-0.79 -13.98,0.98 -19.92,-7.51 -19.92,-7.51 4.34,1.43 10.27,0.76 10.27,0.76 -12.55,-3.3 -16.69,-12.55 -16.69,-12.55 10.39,3.45 22.44,-0.44 22.44,-0.44 -8.52,-0.44 -12.6,-3.99 -12.6,-3.99 6.5,3.4 18.11,0.98 18.11,0.98 -18.6,-1.82 -26.58,-11.52 -26.58,-11.52 3.79,1.62 8.96,1.13 8.96,1.13 -11.17,-3.74 -13.88,-11.96 -13.88,-11.96 7.58,5.02 16.34,3.35 16.34,3.35 -3.35,-0.64 -6.66,-3.15 -6.66,-3.15 8.8,3.03 21.28,0 21.28,0 -17.08,-1.72 -23.03,-9.55 -23.03,-9.55 4.09,1.58 8.27,0.74 8.27,0.74 -9.55,-1.87 -15.31,-12.65 -15.31,-12.65 5.96,3.69 12.85,2.61 12.85,2.61 -3.89,-1.23 -6.3,-4.48 -6.3,-4.48 4.53,0.79 8.96,0.2 8.96,0.2 -14.47,-3.1 -20.89,-13.45 -20.89,-13.45 4.36,2.18 9.3,1.73 9.3,1.73 -2.58,-0.78 -4.75,-3.69 -4.75,-3.69 4.33,2.26 12.85,3.3 12.85,3.3 -12.55,-4.87 -16.66,-19.39 -16.66,-19.39 2.33,1.92 6.9,2.29 6.9,2.29 -2.29,-0.89 -4.47,-4.06 -4.47,-4.06 3.62,2.36 8.93,3.4 8.93,3.4 -10.85,-7.46 -19.2,-23.7 -19.2,-23.7 0,0 -8.34,16.24 -19.2,23.7 0,0 5.32,-1.03 8.93,-3.4 0,0 -2.18,3.17 -4.47,4.06 0,0 4.58,-0.37 6.9,-2.29 0,0 -4.11,14.52 -16.66,19.39 0,0 8.51,-1.03 12.85,-3.3 0,0 -2.17,2.92 -4.75,3.69 0,0 4.95,0.44 9.3,-1.73 0,0 -6.42,10.35 -20.89,13.45 0,0 4.43,0.59 8.96,-0.2 0,0 -2.41,3.25 -6.3,4.48 0,0 6.89,1.08 12.85,-2.61 0,0 -5.76,10.78 -15.31,12.65 0,0 4.18,0.84 8.27,-0.74 0,0 -5.96,7.83 -23.03,9.55 0,0 12.48,3.03 21.28,0 0,0 -3.31,2.51 -6.66,3.15 0,0 8.76,1.67 16.34,-3.35 0,0 -2.71,8.22 -13.88,11.96 0,0 5.17,0.49 8.96,-1.13 0,0 -7.97,9.7 -26.58,11.52 0,0 11.62,2.41 18.11,-0.98 0,0 -4.09,3.54 -12.6,3.99 0,0 12.06,3.89 22.44,0.44 0,0 -4.13,9.25 -16.69,12.55 0,0 5.93,0.66 10.27,-0.76 0,0 -5.94,8.49 -19.92,7.51 0,0 10.83,2.76 16.59,0.79 0,0 -1.79,2.15 -5.33,4.99 -22.96,-6.75 -34.7,-20.84 -34.7,-20.84 7.47,2.55 21.51,-1.02 21.51,-1.02 -18.13,1.28 -25.84,-9.73 -25.84,-9.73 5.63,1.85 13.32,0.99 13.32,0.99 -16.28,-4.28 -21.64,-16.28 -21.64,-16.28 13.47,4.47 29.11,-0.57 29.11,-0.57 -11.04,-0.57 -16.34,-5.17 -16.34,-5.17 8.43,4.4 23.49,1.28 23.49,1.28 -24.13,-2.36 -34.47,-14.94 -34.47,-14.94 4.91,2.11 11.62,1.47 11.62,1.47 -14.49,-4.85 -18,-15.51 -18,-15.51 9.83,6.51 21.19,4.34 21.19,4.34 -4.34,-0.83 -8.63,-4.09 -8.63,-4.09 11.41,3.93 27.59,0 27.59,0 -22.15,-2.23 -29.87,-12.38 -29.87,-12.38 5.3,2.04 10.72,0.96 10.72,0.96 -12.38,-2.43 -19.85,-16.4 -19.85,-16.4 7.72,4.79 16.66,3.38 16.66,3.38 -5.04,-1.6 -8.17,-5.81 -8.17,-5.81 5.87,1.02 11.62,0.26 11.62,0.26 -18.77,-4.02 -27.1,-17.44 -27.1,-17.44 5.65,2.82 12.06,2.25 12.06,2.25 -3.35,-1.01 -6.16,-4.79 -6.16,-4.79 5.62,2.94 16.66,4.28 16.66,4.28 -16.28,-6.32 -21.61,-25.15 -21.61,-25.15 3.02,2.49 8.95,2.97 8.95,2.97 -2.97,-1.15 -5.79,-5.27 -5.79,-5.27 4.69,3.06 11.59,4.4 11.59,4.4 C 261.8,133.06 250.98,112 250.98,112 c 0,0 -10.82,21.06 -24.89,30.73 0,0 6.89,-1.34 11.59,-4.4 0,0 -2.82,4.12 -5.79,5.27 0,0 5.94,-0.48 8.95,-2.97 0,0 -5.33,18.83 -21.61,25.15 0,0 11.04,-1.34 16.66,-4.28 0,0 -2.81,3.78 -6.16,4.79 0,0 6.41,0.57 12.06,-2.25 0,0 -8.33,13.42 -27.1,17.44 0,0 5.74,0.77 11.62,-0.26 0,0 -3.13,4.21 -8.17,5.81 0,0 8.94,1.4 16.66,-3.38 0,0 -7.47,13.98 -19.85,16.4 0,0 5.43,1.09 10.72,-0.96 0,0 -7.72,10.15 -29.87,12.38 0,0 16.18,3.93 27.59,0 0,0 -4.29,3.26 -8.63,4.09 0,0 11.36,2.17 21.19,-4.34 0,0 -3.51,10.66 -18,15.51 0,0 6.7,0.64 11.62,-1.47 0,0 -10.34,12.57 -34.47,14.94 0,0 15.06,3.13 23.49,-1.28 0,0 -5.3,4.6 -16.34,5.17 0,0 15.64,5.04 29.11,0.57 0,0 -5.36,12 -21.64,16.28 0,0 7.69,0.86 13.32,-0.99 0,0 -7.71,11.01 -25.84,9.73 0,0 14.04,3.57 21.51,1.02 0,0 -11.74,14.09 -34.7,20.84 -3.54,-2.84 -5.33,-4.99 -5.33,-4.99 5.76,1.97 16.59,-0.79 16.59,-0.79 -13.98,0.98 -19.92,-7.51 -19.92,-7.51 4.34,1.43 10.27,0.76 10.27,0.76 -12.55,-3.3 -16.69,-12.55 -16.69,-12.55 10.39,3.45 22.44,-0.44 22.44,-0.44 -8.52,-0.44 -12.6,-3.99 -12.6,-3.99 6.5,3.4 18.11,0.98 18.11,0.98 -18.6,-1.82 -26.58,-11.52 -26.58,-11.52 3.79,1.62 8.96,1.13 8.96,1.13 -11.17,-3.74 -13.88,-11.96 -13.88,-11.96 7.58,5.02 16.34,3.35 16.34,3.35 -3.35,-0.64 -6.66,-3.15 -6.66,-3.15 8.8,3.03 21.28,0 21.28,0 -17.08,-1.72 -23.03,-9.55 -23.03,-9.55 4.09,1.58 8.27,0.74 8.27,0.74 -9.55,-1.87 -15.31,-12.65 -15.31,-12.65 5.96,3.69 12.85,2.61 12.85,2.61 -3.89,-1.23 -6.3,-4.48 -6.3,-4.48 4.53,0.79 8.96,0.2 8.96,0.2 -14.47,-3.1 -20.89,-13.45 -20.89,-13.45 4.36,2.18 9.3,1.73 9.3,1.73 -2.58,-0.78 -4.75,-3.69 -4.75,-3.69 4.33,2.26 12.85,3.3 12.85,3.3 -12.55,-4.87 -16.66,-19.39 -16.66,-19.39 2.33,1.92 6.9,2.29 6.9,2.29 -2.29,-0.89 -4.47,-4.06 -4.47,-4.06 3.62,2.36 8.93,3.4 8.93,3.4 -10.85,-7.46 -19.2,-23.7 -19.2,-23.7 0,0 -8.34,16.24 -19.2,23.7 0,0 5.32,-1.03 8.93,-3.4 0,0 -2.18,3.17 -4.47,4.06 0,0 4.58,-0.37 6.9,-2.29 0,0 -4.11,14.52 -16.66,19.39 0,0 8.51,-1.03 12.85,-3.3 0,0 -2.17,2.92 -4.75,3.69 0,0 4.95,0.44 9.3,-1.73 0,0 -6.42,10.35 -20.89,13.45 0,0 4.43,0.59 8.96,-0.2 0,0 -2.41,3.25 -6.3,4.48 0,0 6.89,1.08 12.85,-2.61 0,0 -5.76,10.78 -15.31,12.65 0,0 4.18,0.84 8.27,-0.74 0,0 -5.96,7.83 -23.03,9.55 0,0 12.48,3.03 21.28,0 0,0 -3.31,2.51 -6.66,3.15 0,0 8.76,1.67 16.34,-3.35 0,0 -2.71,8.22 -13.88,11.96 0,0 5.17,0.49 8.96,-1.13 0,0 -7.97,9.7 -26.58,11.52 0,0 11.62,2.41 18.11,-0.98 0,0 -4.09,3.54 -12.6,3.99 0,0 12.06,3.89 22.44,0.44 0,0 -4.13,9.25 -16.69,12.55 0,0 5.93,0.66 10.27,-0.76 0,0 -5.94,8.49 -19.92,7.51 0,0 10.83,2.76 16.59,0.79 0,0 -10.73,12.9 -31.7,17.33 0,0 7.97,1.48 14.18,-0.74 0,0 -5.61,11.27 -23.28,11.91 0,0 13.78,5.76 27.42,0.69 0,0 -5.22,4.68 -10.53,4.73 0,0 17.92,4.87 31.3,-6.84 0,0 -2.56,5.32 -8.81,6.89 0,0 7.13,3.03 18.33,-3.76 -1.3,7.75 -3.84,18.93 -8.16,23.21 h 16.14 16.14 c -4.32,-4.28 -6.86,-15.45 -8.16,-23.21 11.19,6.79 18.33,3.76 18.33,3.76 -6.25,-1.58 -8.81,-6.89 -8.81,-6.89 13.39,11.71 31.3,6.84 31.3,6.84 -5.32,-0.05 -10.53,-4.73 -10.53,-4.73 11.94,4.44 23.99,0.57 26.8,-0.45 3.47,0.65 11.22,0.97 21.76,-5.42 -1.68,10.05 -4.98,24.55 -10.58,30.09 H 251 271.93 c -5.6,-5.55 -8.9,-20.04 -10.58,-30.09 10.53,6.39 18.29,6.08 21.76,5.42 2.81,1.03 14.86,4.89 26.8,0.45 0,0 -5.22,4.68 -10.53,4.73 0,0 17.92,4.87 31.3,-6.84 0,0 -2.56,5.32 -8.81,6.89 0,0 7.13,3.03 18.33,-3.76 -1.3,7.75 -3.84,18.93 -8.16,23.21 h 16.14 16.14 c -4.32,-4.28 -6.86,-15.45 -8.16,-23.21 11.19,6.79 18.33,3.76 18.33,3.76 -6.25,-1.58 -8.81,-6.89 -8.81,-6.89 13.39,11.71 31.3,6.84 31.3,6.84 -5.32,-0.05 -10.53,-4.73 -10.53,-4.73 13.63,5.07 27.41,-0.69 27.41,-0.69 z m -212.49,-6.5 c 0,0 -0.09,0.08 -0.25,0.21 -0.04,-0.03 -0.07,-0.06 -0.11,-0.09 0.13,-0.04 0.24,-0.07 0.36,-0.12 z m -5.36,-16.34 c 0,0 -1.09,2.17 -3.72,4.89 -1.98,-1.11 -3.75,-2.24 -5.3,-3.33 2.91,-0.11 6.11,-0.52 9.02,-1.56 z m 20.87,22.53 c 0,0 0.16,0.07 0.48,0.17 -1.67,-0.15 -3.21,-0.39 -4.65,-0.72 5.23,-1.48 10.65,-4.06 15.6,-8.39 0,0.01 -3.32,6.9 -11.43,8.94 z m 83.75,-6.19 c 0.12,0.04 0.23,0.08 0.35,0.12 -0.04,0.03 -0.07,0.06 -0.11,0.09 -0.15,-0.12 -0.24,-0.21 -0.24,-0.21 z m 14.38,-14.78 c -1.55,1.09 -3.32,2.22 -5.3,3.33 -2.64,-2.71 -3.72,-4.89 -3.72,-4.89 2.9,1.04 6.11,1.45 9.02,1.56 z m -41.32,12.04 c 4.95,4.33 10.37,6.91 15.6,8.39 -1.44,0.32 -2.99,0.57 -4.65,0.72 0.31,-0.1 0.48,-0.17 0.48,-0.17 -8.11,-2.05 -11.43,-8.94 -11.43,-8.94 z"
   stroke-linecap="round"
   id="path2" />&#10;</g>&#10;		<g
   transform="matrix(0.52799376,0,0,0.52799376,0.00101379,69.937088)"
   id="g3">&#10;<path
   style="opacity:1;fill:#b8ccd3;fill-rule:nonzero;stroke:none;stroke-width:1;stroke-linecap:butt;stroke-linejoin:miter;stroke-miterlimit:4;stroke-dasharray:none;stroke-dashoffset:0"
   paint-order="stroke"
   transform="translate(-251,-384.57)"
   d="m 413.19,371.55 c 0,-19.67 -72.62,-35.62 -162.19,-35.62 -89.57,0 -162.19,15.95 -162.19,35.62 0,9.9 18.4,18.85 48.08,25.31 -5.14,2.96 -7.97,6.18 -7.97,9.54 0,14.81 54.66,26.81 122.08,26.81 67.42,0 122.08,-12 122.08,-26.81 0,-3.36 -2.83,-6.58 -7.97,-9.54 29.68,-6.45 48.08,-15.41 48.08,-25.31 z"
   stroke-linecap="round"
   id="path3" />&#10;</g>&#10;		<g
   transform="matrix(0.52799376,0,0,0.52799376,0,69.19225)"
   id="g4">&#10;<path
   style="opacity:1;fill:#687f87;fill-rule:nonzero;stroke:none;stroke-width:1;stroke-linecap:butt;stroke-linejoin:miter;stroke-miterlimit:4;stroke-dasharray:none;stroke-dashoffset:0"
   paint-order="stroke"
   transform="translate(-250.99808,-383.15931)"
   d="m 416.26,356.74 c -12.12,-11.86 -51.91,-17.5 -69.39,-19.84 -31.84,-4.23 -64.07,-5.1 -96.14,-4.78 -50.11,0.8 -100.39,4.53 -149.94,11.68 63.49,-3.01 127.11,-4.14 190.49,0.29 3.82,0.17 9.63,0.84 13.49,1.14 13.37,1.2 26.97,2.67 40.16,4.92 17.2,2.72 35.41,6.15 51.54,12.12 2.21,0.9 4.44,1.81 6.43,2.99 -1.54,0.64 -3.2,1.12 -4.92,1.61 -14.72,3.68 -30.1,4.18 -45.33,4.19 -17.97,-0.03 -35.74,-1.87 -53.68,-3.66 -54.77,-5 -109.93,-11.47 -164.99,-4.76 -12.98,1.77 -43.56,7.29 -50.83,18.86 -7.71,15.78 17.44,20.4 29.03,22.54 32.91,17.45 71.53,26.52 107.84,29.43 26.23,1.85 53.03,0.45 78.89,-4.25 20.92,-3.81 41.63,-9.92 61.37,-17.84 10.51,-4.42 20.91,-9.36 30.84,-14.92 -3.19,0.73 -6.33,1.57 -9.48,2.35 -6.15,1.7 -12.63,3.18 -18.81,4.67 -2.29,0.61 -7.09,1.7 -9.4,2.15 -34.08,7.61 -69.03,12.25 -103.96,12.64 -33.42,0.34 -66.91,-2.91 -99.56,-10.01 15.35,0.97 30.74,1.2 46.1,1.23 36.49,-0.43 73.1,-2.69 109,-9.45 -9.07,0.83 -18.14,1.48 -27.22,1.87 -45.2,1.92 -90.76,0.63 -135.63,-4.74 -15.12,-2.19 -30.68,-3.89 -44.75,-9.69 -0.41,-0.19 -0.85,-0.4 -1.28,-0.64 21.89,-12.36 68.22,-12.44 93.11,-11.82 36.13,1.03 72.17,4.75 108.22,8.31 18.26,1.74 36.75,3.63 55.2,3.52 15.56,-0.24 59.19,-0.84 66.56,-16.26 2.33,-4.66 0.63,-10.51 -2.96,-13.85 z M 93.91,385.29 c -0.02,-0.02 0.01,-0.01 0.05,0.05 -0.01,-0.01 -0.04,-0.03 -0.05,-0.05 z m 311.77,-18.06 c 0.12,0.13 0.1,0.18 0,0 z"
   stroke-linecap="round"
   id="path4" />&#10;</g>&#10;</g>&#10;</g><g
     transform="matrix(1.9211538,0,0,1.9211538,296.44364,463.52562)"
     id="text-logo">&#10;<g
   paint-order="stroke"
   id="g6">&#10;		<g
   id="text-logo-path-0">&#10;<path
   style="opacity:1;fill:#445249;fill-rule:nonzero;stroke:none;stroke-width:0;stroke-linecap:butt;stroke-linejoin:miter;stroke-miterlimit:4;stroke-dasharray:none;stroke-dashoffset:0"
   paint-order="stroke"
   transform="translate(-155.815,13.81)"
   d="m 22.99,-19.69 h -5.6 q -0.16,-1.63 -1.39,-2.54 -1.22,-0.9 -3.33,-0.9 v 0 q -1.43,0 -2.41,0.4 -0.99,0.4 -1.51,1.1 -0.52,0.7 -0.52,1.59 v 0 q -0.03,0.74 0.32,1.3 0.34,0.55 0.95,0.95 0.61,0.4 1.4,0.69 0.8,0.29 1.7,0.49 v 0 l 2.49,0.59 q 1.8,0.41 3.32,1.08 1.51,0.68 2.61,1.66 1.11,0.99 1.72,2.32 0.62,1.34 0.63,3.07 v 0 q -0.01,2.53 -1.29,4.39 -1.27,1.85 -3.67,2.87 -2.39,1.02 -5.77,1.02 v 0 Q 9.3,0.39 6.82,-0.63 4.35,-1.66 2.96,-3.68 1.58,-5.69 1.51,-8.68 v 0 h 5.66 q 0.09,1.39 0.8,2.32 0.71,0.92 1.9,1.39 1.2,0.46 2.71,0.46 v 0 q 1.48,0 2.58,-0.43 1.1,-0.43 1.71,-1.2 0.61,-0.77 0.61,-1.77 v 0 q 0,-0.93 -0.55,-1.56 -0.55,-0.64 -1.59,-1.08 -1.05,-0.45 -2.56,-0.81 v 0 l -3.01,-0.76 q -3.5,-0.85 -5.52,-2.66 -2.02,-1.8 -2.01,-4.87 v 0 q -0.01,-2.51 1.34,-4.38 1.36,-1.88 3.73,-2.93 2.38,-1.05 5.4,-1.05 v 0 q 3.08,0 5.38,1.05 2.3,1.05 3.58,2.93 1.28,1.87 1.32,4.34 z m 14.86,-7.95 h 5.84 V 0 H 37.85 Z M 76.77,0 h -17.7 v -27.64 h 5.85 v 22.82 h 11.85 z m 9.95,-27.64 h 6.49 l 6.68,21 h 0.26 l 6.69,-21 h 6.48 L 103.79,0 H 96.26 Z M 145.88,0 H 127.2 v -27.64 h 18.62 v 4.82 h -12.77 v 6.59 h 11.82 v 4.81 h -11.82 v 6.6 h 12.83 z m 21.01,0 h -5.85 v -27.64 h 10.91 q 3.13,0 5.35,1.12 2.22,1.11 3.39,3.14 1.16,2.03 1.16,4.77 v 0 q 0,2.75 -1.18,4.73 -1.19,1.98 -3.44,3.03 -2.25,1.05 -5.43,1.05 v 0 h -7.3 v -4.69 h 6.35 q 1.68,0 2.78,-0.46 1.11,-0.46 1.66,-1.38 0.54,-0.92 0.54,-2.28 v 0 q 0,-1.38 -0.54,-2.32 -0.55,-0.94 -1.66,-1.44 -1.12,-0.49 -2.8,-0.49 v 0 h -3.94 z m 2.78,-12.58 h 6.3 L 182.84,0 h -6.45 z M 202.39,0 h -5.84 v -27.64 h 10.9 q 3.14,0 5.36,1.2 2.21,1.19 3.38,3.3 1.16,2.12 1.16,4.87 v 0 q 0,2.75 -1.18,4.86 -1.19,2.1 -3.44,3.28 -2.24,1.17 -5.43,1.17 v 0 h -6.95 v -4.68 h 6.01 q 1.68,0 2.78,-0.59 1.1,-0.59 1.65,-1.63 0.55,-1.05 0.55,-2.41 v 0 q 0,-1.38 -0.55,-2.41 -0.55,-1.03 -1.65,-1.61 -1.11,-0.57 -2.81,-0.57 v 0 h -3.94 z m 29.33,-27.64 h 5.85 V 0 h -5.85 z m 38.53,0 h 5.81 V 0 h -5.04 l -12.03,-17.39 h -0.2 V 0 h -5.84 v -27.64 h 5.13 L 270,-10.26 h 0.25 z M 310.12,0 h -18.67 v -27.64 h 18.62 v 4.82 h -12.78 v 6.59 h 11.82 v 4.81 h -11.82 v 6.6 h 12.83 z"
   stroke-linecap="round"
   id="path5" />&#10;</g>&#10;</g>&#10;</g></g>&#10;</svg>
